<svg width="763" height="638" viewBox="0 0 763 638" fill="none" xmlns="http://www.w3.org/2000/svg">
<path d="M763 0H0L30.5 319L0 638H763V0Z" fill="#9F7A8D"/>
<path d="M648.215 308.569V65.4316H405" stroke="#CFA7BB" stroke-width="4.1654" stroke-miterlimit="10"/>
<path d="M622.717 308.569V145.065" stroke="#CFA7BB" stroke-width="4.1654" stroke-miterlimit="10"/>
<path d="M569.131 90.9301H405" stroke="#CFA7BB" stroke-width="4.1654" stroke-miterlimit="10"/>
<path d="M622.953 91.0085L648.216 65.4316" stroke="#CFA7BB" stroke-width="4.1654" stroke-miterlimit="10"/>
<path d="M568.896 145.693L603.024 111.172" stroke="#CFA7BB" stroke-width="4.1654" stroke-miterlimit="10"/>
<path d="M622.717 145.536C622.717 135.65 614.714 127.648 604.829 127.648C594.943 127.648 586.941 135.65 586.941 145.536H569.053V126.628C578.938 126.628 586.941 118.625 586.941 108.74C586.941 98.8541 578.938 90.8516 569.053 90.8516" stroke="#CFA7BB" stroke-width="4.1654" stroke-miterlimit="10"/>
<path d="M570.204 113.999C573.282 113.272 575.188 110.187 574.461 107.109C573.734 104.03 570.65 102.124 567.571 102.851C564.493 103.578 562.587 106.662 563.314 109.741C564.041 112.819 567.125 114.725 570.204 113.999Z" stroke="#CFA7BB" stroke-width="4.1654" stroke-miterlimit="10"/>
<path d="M608.237 149.738C610.473 147.501 610.473 143.875 608.237 141.638C606 139.402 602.374 139.402 600.137 141.638C597.901 143.875 597.901 147.501 600.137 149.738C602.374 151.975 606 151.975 608.237 149.738Z" stroke="#CFA7BB" stroke-width="4.1654" stroke-miterlimit="10"/>
<path d="M635.427 145.536V78.377" stroke="#CFA7BB" stroke-width="4.1654" stroke-miterlimit="10"/>
<path d="M568.033 78.1416H636.212" stroke="#CFA7BB" stroke-width="4.1654" stroke-miterlimit="10"/>
<path d="M613.224 114.624C620.85 114.624 627.032 108.442 627.032 100.816C627.032 93.1894 620.85 87.0072 613.224 87.0072C605.598 87.0072 599.416 93.1894 599.416 100.816C599.416 108.442 605.598 114.624 613.224 114.624Z" stroke="#CFA7BB" stroke-width="4.1654" stroke-miterlimit="10"/>
<path d="M648.216 158.873C648.216 151.812 642.488 146.163 635.506 146.163C628.445 146.163 622.796 151.891 622.796 158.873" stroke="#CFA7BB" stroke-width="4.1654" stroke-miterlimit="10"/>
<path d="M555.244 90.9299C562.305 90.9299 567.954 85.2026 567.954 78.22C567.954 71.1589 562.227 65.51 555.244 65.51" stroke="#CFA7BB" stroke-width="4.1654" stroke-miterlimit="10"/>
<path d="M622.325 111.172L604.201 90.3809" stroke="#CFA7BB" stroke-width="4.1654" stroke-miterlimit="10"/>
<path d="M544.182 91.0085L526.608 65.4316" stroke="#CFA7BB" stroke-width="4.1654" stroke-miterlimit="10"/>
<path d="M528.334 91.0085L510.76 65.4316" stroke="#CFA7BB" stroke-width="4.1654" stroke-miterlimit="10"/>
<path d="M512.485 91.0085L494.833 65.4316" stroke="#CFA7BB" stroke-width="4.1654" stroke-miterlimit="10"/>
<path d="M496.637 91.0085L478.985 65.4316" stroke="#CFA7BB" stroke-width="4.1654" stroke-miterlimit="10"/>
<path d="M480.789 91.0085L463.136 65.4316" stroke="#CFA7BB" stroke-width="4.1654" stroke-miterlimit="10"/>
<path d="M623.423 169.23L649 186.804" stroke="#CFA7BB" stroke-width="4.1654" stroke-miterlimit="10"/>
<path d="M623.423 185.078L649 202.731" stroke="#CFA7BB" stroke-width="4.1654" stroke-miterlimit="10"/>
<path d="M623.423 200.926L649 218.579" stroke="#CFA7BB" stroke-width="4.1654" stroke-miterlimit="10"/>
<path d="M623.423 216.774L649 234.427" stroke="#CFA7BB" stroke-width="4.1654" stroke-miterlimit="10"/>
<path d="M623.423 232.623L649 250.275" stroke="#CFA7BB" stroke-width="4.1654" stroke-miterlimit="10"/>
<path d="M130.785 329.863L130.785 573L374 573" stroke="#CFA7BB" stroke-width="4.1654" stroke-miterlimit="10"/>
<path d="M156.283 329.863L156.283 493.367" stroke="#CFA7BB" stroke-width="4.1654" stroke-miterlimit="10"/>
<path d="M209.869 547.502L374 547.502" stroke="#CFA7BB" stroke-width="4.1654" stroke-miterlimit="10"/>
<path d="M156.048 547.423L130.785 573" stroke="#CFA7BB" stroke-width="4.1654" stroke-miterlimit="10"/>
<path d="M210.104 492.739L175.976 527.26" stroke="#CFA7BB" stroke-width="4.1654" stroke-miterlimit="10"/>
<path d="M156.283 492.896C156.283 502.781 164.286 510.784 174.171 510.784C184.057 510.784 192.059 502.781 192.059 492.896L209.947 492.896L209.947 511.804C200.062 511.804 192.059 519.806 192.059 529.692C192.059 539.578 200.062 547.58 209.947 547.58" stroke="#CFA7BB" stroke-width="4.1654" stroke-miterlimit="10"/>
<path d="M208.796 524.433C205.718 525.16 203.812 528.245 204.539 531.323C205.266 534.401 208.35 536.308 211.429 535.581C214.507 534.854 216.413 531.769 215.686 528.691C214.959 525.612 211.875 523.706 208.796 524.433Z" stroke="#CFA7BB" stroke-width="4.1654" stroke-miterlimit="10"/>
<path d="M170.763 488.694C168.527 490.93 168.527 494.557 170.763 496.793C173 499.03 176.626 499.03 178.863 496.793C181.099 494.557 181.099 490.93 178.863 488.694C176.626 486.457 173 486.457 170.763 488.694Z" stroke="#CFA7BB" stroke-width="4.1654" stroke-miterlimit="10"/>
<path d="M143.573 492.896L143.573 560.055" stroke="#CFA7BB" stroke-width="4.1654" stroke-miterlimit="10"/>
<path d="M210.967 560.29L142.788 560.29" stroke="#CFA7BB" stroke-width="4.1654" stroke-miterlimit="10"/>
<path d="M165.776 523.808C158.15 523.808 151.968 529.99 151.968 537.616C151.968 545.242 158.15 551.424 165.776 551.424C173.402 551.424 179.584 545.242 179.584 537.616C179.584 529.99 173.402 523.808 165.776 523.808Z" stroke="#CFA7BB" stroke-width="4.1654" stroke-miterlimit="10"/>
<path d="M130.784 479.558C130.784 486.619 136.512 492.268 143.494 492.268C150.555 492.268 156.204 486.541 156.204 479.558" stroke="#CFA7BB" stroke-width="4.1654" stroke-miterlimit="10"/>
<path d="M223.756 547.502C216.695 547.502 211.046 553.229 211.046 560.212C211.046 567.273 216.773 572.922 223.756 572.922" stroke="#CFA7BB" stroke-width="4.1654" stroke-miterlimit="10"/>
<path d="M156.675 527.26L174.799 548.051" stroke="#CFA7BB" stroke-width="4.1654" stroke-miterlimit="10"/>
<path d="M234.818 547.423L252.392 573" stroke="#CFA7BB" stroke-width="4.1654" stroke-miterlimit="10"/>
<path d="M250.666 547.423L268.24 573" stroke="#CFA7BB" stroke-width="4.1654" stroke-miterlimit="10"/>
<path d="M266.515 547.423L284.167 573" stroke="#CFA7BB" stroke-width="4.1654" stroke-miterlimit="10"/>
<path d="M282.363 547.423L300.015 573" stroke="#CFA7BB" stroke-width="4.1654" stroke-miterlimit="10"/>
<path d="M298.211 547.423L315.864 573" stroke="#CFA7BB" stroke-width="4.1654" stroke-miterlimit="10"/>
<path d="M155.577 469.202L130 451.628" stroke="#CFA7BB" stroke-width="4.1654" stroke-miterlimit="10"/>
<path d="M155.577 453.354L130 435.701" stroke="#CFA7BB" stroke-width="4.1654" stroke-miterlimit="10"/>
<path d="M155.577 437.505L130 419.853" stroke="#CFA7BB" stroke-width="4.1654" stroke-miterlimit="10"/>
<path d="M155.577 421.657L130 404.004" stroke="#CFA7BB" stroke-width="4.1654" stroke-miterlimit="10"/>
<path d="M155.577 405.809L130 388.156" stroke="#CFA7BB" stroke-width="4.1654" stroke-miterlimit="10"/>
<path d="M373.137 65.7847L130 65.7847L130 309" stroke="#CFA7BB" stroke-width="4.1654" stroke-miterlimit="10"/>
<path d="M373.137 91.2831L209.633 91.2831" stroke="#CFA7BB" stroke-width="4.1654" stroke-miterlimit="10"/>
<path d="M155.499 144.869L155.499 309" stroke="#CFA7BB" stroke-width="4.1654" stroke-miterlimit="10"/>
<path d="M155.577 91.0476L130 65.7846" stroke="#CFA7BB" stroke-width="4.1654" stroke-miterlimit="10"/>
<path d="M210.261 145.104L175.74 110.976" stroke="#CFA7BB" stroke-width="4.1654" stroke-miterlimit="10"/>
<path d="M210.104 91.283C200.219 91.283 192.216 99.2855 192.216 109.171C192.216 119.057 200.219 127.059 210.104 127.059L210.104 144.947L191.196 144.947C191.196 135.062 183.194 127.059 173.308 127.059C163.422 127.059 155.42 135.062 155.42 144.947" stroke="#CFA7BB" stroke-width="4.1654" stroke-miterlimit="10"/>
<path d="M178.567 143.796C177.84 140.718 174.755 138.812 171.677 139.539C168.599 140.266 166.692 143.35 167.419 146.429C168.146 149.507 171.231 151.413 174.309 150.686C177.388 149.959 179.294 146.875 178.567 143.796Z" stroke="#CFA7BB" stroke-width="4.1654" stroke-miterlimit="10"/>
<path d="M214.306 105.763C212.07 103.527 208.443 103.527 206.207 105.763C203.97 108 203.97 111.626 206.207 113.863C208.443 116.1 212.07 116.1 214.306 113.863C216.543 111.626 216.543 108 214.306 105.763Z" stroke="#CFA7BB" stroke-width="4.1654" stroke-miterlimit="10"/>
<path d="M210.104 78.5731L142.945 78.5731" stroke="#CFA7BB" stroke-width="4.1654" stroke-miterlimit="10"/>
<path d="M142.71 145.967L142.71 77.7885" stroke="#CFA7BB" stroke-width="4.1654" stroke-miterlimit="10"/>
<path d="M179.192 100.776C179.192 93.1501 173.01 86.9679 165.384 86.9679C157.758 86.9679 151.575 93.1501 151.575 100.776C151.575 108.402 157.758 114.585 165.384 114.585C173.01 114.585 179.192 108.402 179.192 100.776Z" stroke="#CFA7BB" stroke-width="4.1654" stroke-miterlimit="10"/>
<path d="M223.442 65.7847C216.381 65.7847 210.732 71.512 210.732 78.4946C210.732 85.5557 216.459 91.2046 223.442 91.2046" stroke="#CFA7BB" stroke-width="4.1654" stroke-miterlimit="10"/>
<path d="M155.498 158.756C155.498 151.695 149.771 146.046 142.788 146.046C135.727 146.046 130.078 151.773 130.078 158.756" stroke="#CFA7BB" stroke-width="4.1654" stroke-miterlimit="10"/>
<path d="M175.74 91.6755L154.949 109.799" stroke="#CFA7BB" stroke-width="4.1654" stroke-miterlimit="10"/>
<path d="M155.577 169.818L130 187.392" stroke="#CFA7BB" stroke-width="4.1654" stroke-miterlimit="10"/>
<path d="M155.577 185.666L130 203.241" stroke="#CFA7BB" stroke-width="4.1654" stroke-miterlimit="10"/>
<path d="M155.577 201.515L130 219.167" stroke="#CFA7BB" stroke-width="4.1654" stroke-miterlimit="10"/>
<path d="M155.577 217.363L130 235.016" stroke="#CFA7BB" stroke-width="4.1654" stroke-miterlimit="10"/>
<path d="M155.577 233.211L130 250.864" stroke="#CFA7BB" stroke-width="4.1654" stroke-miterlimit="10"/>
<path d="M233.798 90.5769L251.372 65.0001" stroke="#CFA7BB" stroke-width="4.1654" stroke-miterlimit="10"/>
<path d="M249.646 90.577L267.299 65.0002" stroke="#CFA7BB" stroke-width="4.1654" stroke-miterlimit="10"/>
<path d="M265.495 90.577L283.147 65.0002" stroke="#CFA7BB" stroke-width="4.1654" stroke-miterlimit="10"/>
<path d="M281.343 90.577L298.996 65.0002" stroke="#CFA7BB" stroke-width="4.1654" stroke-miterlimit="10"/>
<path d="M297.191 90.577L314.844 65.0002" stroke="#CFA7BB" stroke-width="4.1654" stroke-miterlimit="10"/>
<path d="M405.863 572.647L649 572.647L649 329.432" stroke="#CFA7BB" stroke-width="4.1654" stroke-miterlimit="10"/>
<path d="M405.863 547.149L569.367 547.149" stroke="#CFA7BB" stroke-width="4.1654" stroke-miterlimit="10"/>
<path d="M623.502 493.563L623.502 329.432" stroke="#CFA7BB" stroke-width="4.1654" stroke-miterlimit="10"/>
<path d="M623.423 547.384L649 572.647" stroke="#CFA7BB" stroke-width="4.1654" stroke-miterlimit="10"/>
<path d="M568.739 493.327L603.26 527.456" stroke="#CFA7BB" stroke-width="4.1654" stroke-miterlimit="10"/>
<path d="M568.896 547.149C578.781 547.149 586.784 539.146 586.784 529.261C586.784 519.375 578.781 511.373 568.896 511.373L568.896 493.485L587.804 493.485C587.804 503.37 595.806 511.373 605.692 511.373C615.578 511.373 623.58 503.37 623.58 493.484" stroke="#CFA7BB" stroke-width="4.1654" stroke-miterlimit="10"/>
<path d="M600.433 494.635C601.16 497.714 604.245 499.62 607.323 498.893C610.401 498.166 612.308 495.081 611.581 492.003C610.854 488.925 607.769 487.019 604.691 487.745C601.612 488.472 599.706 491.557 600.433 494.635Z" stroke="#CFA7BB" stroke-width="4.1654" stroke-miterlimit="10"/>
<path d="M564.694 532.668C566.93 534.905 570.557 534.905 572.793 532.668C575.03 530.432 575.03 526.805 572.793 524.569C570.557 522.332 566.93 522.332 564.694 524.569C562.457 526.805 562.457 530.432 564.694 532.668Z" stroke="#CFA7BB" stroke-width="4.1654" stroke-miterlimit="10"/>
<path d="M568.896 559.859L636.055 559.859" stroke="#CFA7BB" stroke-width="4.1654" stroke-miterlimit="10"/>
<path d="M636.29 492.464L636.29 560.643" stroke="#CFA7BB" stroke-width="4.1654" stroke-miterlimit="10"/>
<path d="M599.808 537.656C599.808 545.282 605.99 551.464 613.616 551.464C621.242 551.464 627.425 545.282 627.425 537.656C627.425 530.029 621.242 523.847 613.616 523.847C605.99 523.847 599.808 530.029 599.808 537.656Z" stroke="#CFA7BB" stroke-width="4.1654" stroke-miterlimit="10"/>
<path d="M555.558 572.647C562.619 572.647 568.268 566.92 568.268 559.937C568.268 552.876 562.541 547.227 555.558 547.227" stroke="#CFA7BB" stroke-width="4.1654" stroke-miterlimit="10"/>
<path d="M623.502 479.676C623.502 486.737 629.229 492.386 636.212 492.386C643.273 492.386 648.922 486.659 648.922 479.676" stroke="#CFA7BB" stroke-width="4.1654" stroke-miterlimit="10"/>
<path d="M603.26 546.756L624.051 528.633" stroke="#CFA7BB" stroke-width="4.1654" stroke-miterlimit="10"/>
<path d="M623.423 468.614L649 451.039" stroke="#CFA7BB" stroke-width="4.1654" stroke-miterlimit="10"/>
<path d="M623.423 452.765L649 435.191" stroke="#CFA7BB" stroke-width="4.1654" stroke-miterlimit="10"/>
<path d="M623.423 436.917L649 419.264" stroke="#CFA7BB" stroke-width="4.1654" stroke-miterlimit="10"/>
<path d="M623.423 421.069L649 403.416" stroke="#CFA7BB" stroke-width="4.1654" stroke-miterlimit="10"/>
<path d="M623.423 405.221L649 387.568" stroke="#CFA7BB" stroke-width="4.1654" stroke-miterlimit="10"/>
<path d="M545.202 547.855L527.628 573.432" stroke="#CFA7BB" stroke-width="4.1654" stroke-miterlimit="10"/>
<path d="M529.354 547.855L511.701 573.431" stroke="#CFA7BB" stroke-width="4.1654" stroke-miterlimit="10"/>
<path d="M513.505 547.855L495.853 573.431" stroke="#CFA7BB" stroke-width="4.1654" stroke-miterlimit="10"/>
<path d="M497.657 547.855L480.004 573.431" stroke="#CFA7BB" stroke-width="4.1654" stroke-miterlimit="10"/>
<path d="M481.809 547.855L464.156 573.432" stroke="#CFA7BB" stroke-width="4.1654" stroke-miterlimit="10"/>
<path d="M284.556 436.814C284.556 436.814 318.187 397.802 385.449 397.802C452.71 397.802 484.099 436.814 484.099 436.814" stroke="#CFA7BB" stroke-width="4"/>
<circle cx="385" cy="253.861" r="78.7143" stroke="#CFA7BB" stroke-width="4"/>
<circle cx="385" cy="253.861" r="100.238" stroke="#CFA7BB" stroke-width="4"/>
<rect x="284.762" y="254.068" width="200.476" height="204.96" stroke="#CFA7BB" stroke-width="4"/>
<rect x="274" y="460.337" width="222" height="13.0397" stroke="#CFA7BB" stroke-width="4"/>
</svg>
