<svg width="636" height="500" viewBox="0 0 636 500" fill="none" xmlns="http://www.w3.org/2000/svg">
<path d="M358 501V271V271C460.173 271 543 353.827 543 456V501" stroke="#E8E8E8"/>
<path d="M635 501V242V242C532.827 242 450 324.827 450 427V501" stroke="#E8E8E8"/>
<path d="M1 501V1V1C103.173 1 186 83.8273 186 186V501" stroke="#E8E8E8"/>
<path d="M319 501V227V227C236.157 227 169 294.157 169 377V501" stroke="#E8E8E8"/>
<path d="M385 354V501H491V460C491 401.458 443.542 354 385 354Z" fill="#E8E8E8" stroke="#E8E8E8"/>
<path d="M22 225V501H83V286C83 252.311 55.6894 225 22 225Z" fill="#E8E8E8" stroke="#E8E8E8"/>
<path d="M54 501V215V215C112.542 215 160 262.458 160 321V501" stroke="#E8E8E8"/>
</svg>
