<svg width="105" height="51" viewBox="0 0 105 51" fill="none" xmlns="http://www.w3.org/2000/svg">
<path d="M10.72 50.6028H8.96749L8.81834 49.7092L8.25904 46.2123H2.405L1.90163 49.7092L1.75248 50.6028H0L0.205079 49.3595L4.51171 20.8604H6.20826L10.5149 49.3595L10.72 50.6028ZM8.01667 44.3862L5.36931 26.8438L2.72194 44.3862H8.01667Z" fill="#097268"/>
<path d="M14.6538 26.1056C14.6538 26.9992 14.8588 27.8734 15.2131 28.767C15.6605 29.9715 16.5181 31.3314 17.7113 32.7301C20.9739 36.4406 22.5772 40.0346 22.5772 43.4343C22.5772 44.0171 22.5213 44.5804 22.4281 45.1632C22.0738 47.5139 21.123 49.1846 19.5756 50.0782C18.8672 50.4862 18.1214 50.6999 17.2638 50.6999C16.6672 50.6999 16.0707 50.6028 15.4181 50.3891L16.0147 48.6601C16.4622 48.8155 16.8723 48.9126 17.2638 48.9126C17.8231 48.9126 18.2706 48.7572 18.718 48.5047C19.7621 47.8247 20.4705 46.6203 20.7129 44.8524C20.7688 44.3862 20.8061 43.8617 20.8061 43.3954C20.8061 42.1521 20.5637 40.8893 20.0976 39.5878C19.3892 37.8588 18.1401 35.9938 16.3876 33.954C14.0385 31.2925 12.8826 28.6893 12.8826 26.1833C12.8826 25.7753 12.9386 25.3479 12.9758 24.9399C13.2741 23.211 13.9826 21.9676 15.1385 21.2877C15.7351 20.9186 16.3317 20.7632 16.9469 20.7632C17.3943 20.7632 17.8418 20.8603 18.3079 21.0157L17.7113 22.7447C17.413 22.6476 17.152 22.5893 16.9096 22.5893C16.5554 22.5893 16.313 22.6864 16.052 22.8418C15.6978 22.9973 15.3995 23.3081 15.1944 23.7355C14.952 24.1434 14.8029 24.668 14.691 25.2508C14.6538 25.5422 14.6538 25.853 14.6538 26.1056Z" fill="#097268"/>
<path d="M24.6094 20.8408H35.348V22.6669H30.8736V50.6027H29.1211V22.6669H24.6094V20.8408Z" fill="#097268"/>
<path d="M84.1752 50.6027H82.1804L81.8821 50.0782L78.4703 43.8616C77.6687 44.6969 76.7738 45.3769 75.823 45.9403C75.2637 46.3094 74.8162 46.8339 74.462 47.5138C74.1637 48.0966 74.0146 48.7571 74.0146 49.4954V50.5833H72.2621V20.8408H75.3755C76.3823 20.8408 77.3331 21.1516 78.172 21.7733C79.0296 22.4532 79.7195 23.3469 80.372 24.4348C80.9686 25.5227 81.4719 26.8437 81.8262 28.359C82.1804 29.8743 82.3855 31.4867 82.3855 33.2157C82.3855 35.1389 82.1431 36.8679 81.6397 38.3832C81.0804 39.8985 80.4465 41.2584 79.6822 42.4046L83.4481 49.1845L84.1752 50.6027ZM78.8619 40.423C79.4212 39.4906 79.8127 38.3832 80.1669 37.1788C80.5211 35.9743 80.6703 34.6727 80.6703 33.2157C80.6703 31.7975 80.5211 30.4571 80.2788 29.1361C79.9805 27.8927 79.5703 26.7854 79.1229 25.7947C78.6195 24.8039 78.0788 24.0657 77.4263 23.5023C76.7738 22.9195 76.0653 22.6669 75.3755 22.6669H74.0146V45.1243C74.3129 44.8135 74.6112 44.5415 74.9095 44.3861C75.6179 44.017 76.3077 43.4925 77.0162 42.8125C77.65 42.1326 78.3026 41.3555 78.8619 40.423Z" fill="#097268"/>
<path d="M88.3141 20.8408H90.0666V50.6027H88.3141V20.8408Z" fill="#097268"/>
<path d="M105 50.6028H103.248L103.098 49.7092L102.539 46.2123H96.685L96.1817 49.7092L96.0325 50.6028H94.28L94.4851 49.3595L98.7917 20.8604H100.488L104.795 49.3595L105 50.6028ZM102.297 44.3862L99.6493 26.8438L97.002 44.3862H102.297Z" fill="#097268"/>
<path d="M6.18958 15.5376H4.77272V16.8198H6.39465V17.0529H4.51172V13.9058H6.37601V14.1389H4.77272V15.3239H6.18958V15.5376Z" fill="#282F47"/>
<path d="M9.04205 17.0519V13.9048H9.881C10.1234 13.9048 10.3471 13.9631 10.5522 14.0796C10.7572 14.1962 10.9064 14.371 11.0182 14.5847C11.1301 14.7984 11.186 15.051 11.186 15.3229V15.6143C11.186 15.8863 11.1301 16.1389 11.0182 16.3526C10.9064 16.5663 10.7572 16.7411 10.5522 16.8577C10.3471 16.9742 10.1234 17.0325 9.86236 17.0325H9.04205V17.0519ZM9.30306 14.1379V16.8382H9.881C10.1979 16.8382 10.4589 16.7217 10.6454 16.508C10.8318 16.2943 10.925 15.9835 10.925 15.6143V15.3424C10.925 14.9733 10.8318 14.6819 10.6454 14.4682C10.4589 14.2545 10.1979 14.1379 9.89965 14.1379H9.30306Z" fill="#282F47"/>
<path d="M14.2622 17.0519H14.0012V13.9048H14.2622V17.0519Z" fill="#282F47"/>
<path d="M18.8672 15.5755H17.4503V17.0519H17.1893V13.9048H19.0536V14.1379H17.4503V15.3618H18.8485V15.5755H18.8672Z" fill="#282F47"/>
<path d="M22.0179 17.0519H21.7569V13.9048H22.0179V17.0519Z" fill="#282F47"/>
<path d="M27.089 16.0619C27.0517 16.3922 26.9398 16.6447 26.7534 16.8196C26.5669 16.9944 26.3059 17.0915 25.989 17.0915C25.7653 17.0915 25.5602 17.0333 25.3924 16.9167C25.2246 16.8001 25.0941 16.6447 25.0009 16.431C24.9077 16.2173 24.8517 15.9648 24.8517 15.6928V15.2849C24.8517 15.0129 24.9077 14.7603 25.0009 14.5466C25.0941 14.3329 25.2246 14.1581 25.4111 14.0415C25.5788 13.925 25.7839 13.8667 26.0263 13.8667C26.3432 13.8667 26.6042 13.9638 26.7907 14.1387C26.9771 14.3135 27.089 14.5661 27.1076 14.8963H26.8466C26.7907 14.3718 26.511 14.0998 26.0076 14.0998C25.728 14.0998 25.5229 14.197 25.3551 14.4106C25.1873 14.6243 25.1128 14.9157 25.1128 15.2849V15.6734C25.1128 16.0425 25.1873 16.3339 25.3551 16.5476C25.5043 16.7613 25.728 16.8779 25.989 16.8779C26.25 16.8779 26.4551 16.8196 26.5856 16.6836C26.7161 16.5476 26.8093 16.3533 26.828 16.0814H27.089V16.0619Z" fill="#282F47"/>
<path d="M30.1464 17.0519H29.8854V13.9048H30.1464V17.0519Z" fill="#282F47"/>
<path d="M35.3107 15.654C35.3107 15.9454 35.2547 16.1979 35.1615 16.4116C35.0683 16.6253 34.9378 16.8001 34.7514 16.9167C34.5649 17.0333 34.3599 17.0915 34.1361 17.0915C33.7819 17.0915 33.5023 16.9556 33.2785 16.703C33.0548 16.431 32.9616 16.0813 32.9616 15.6345V15.3043C32.9616 15.0129 33.0175 14.7603 33.1108 14.5466C33.204 14.3329 33.3531 14.1581 33.5209 14.0415C33.7073 13.925 33.9124 13.8667 34.1361 13.8667C34.3599 13.8667 34.5649 13.925 34.7514 14.0415C34.9378 14.1581 35.0683 14.3135 35.1615 14.5272C35.2547 14.7409 35.3107 14.9935 35.3107 15.2654V15.654ZM35.0497 15.3043C35.0497 14.9352 34.9751 14.6243 34.8073 14.4106C34.6395 14.197 34.4158 14.0804 34.1361 14.0804C33.8565 14.0804 33.6328 14.197 33.465 14.4106C33.2972 14.6243 33.2226 14.9352 33.2226 15.3043V15.6345C33.2226 16.0036 33.2972 16.295 33.465 16.5282C33.6328 16.7419 33.8565 16.8584 34.1361 16.8584C34.4158 16.8584 34.6582 16.7419 34.8073 16.5282C34.9751 16.3145 35.0497 16.0231 35.0497 15.6345V15.3043Z" fill="#282F47"/>
<path d="M61.4302 22.2397C61.8217 21.0547 62.12 14.8381 62.12 14.8381C61.6726 4.48361 53.0779 1.16162 52.4813 0.889648V31.4869V31.6034C54.4016 30.8652 56.2473 29.583 57.6083 28.2426C59.8641 26.1056 60.8522 23.7938 61.4302 22.2397Z" fill="#474C62"/>
<path d="M62.12 23.0943V25.5615C64.4318 28.1258 65.6996 31.4478 65.6996 34.9835C65.6996 38.6552 64.32 42.1131 61.8218 44.7163C59.3235 47.3195 56.005 48.7571 52.4814 48.7571C48.9578 48.7571 45.6392 47.3195 43.141 44.7163C40.6428 42.1131 39.2632 38.6552 39.2632 34.9835C39.2632 31.3507 40.6055 27.9315 43.0478 25.3478V22.9194C39.692 25.7752 37.548 30.1268 37.548 34.9835C37.548 43.5896 44.241 50.5444 52.4814 50.5444C60.7218 50.5444 67.4148 43.5701 67.4148 34.9835C67.4334 30.2045 65.364 25.95 62.12 23.0943Z" fill="#097268"/>
<path d="M43.477 22.0068L43.4579 22.0267C43.4579 22.0466 43.477 22.0664 43.477 22.0863V22.0068Z" fill="#92868D"/>
<path d="M57.7574 4.21153C56.7507 3.14306 55.0541 1.78318 52.7051 0.675848C52.6678 0.656422 52.6305 0.636998 52.6119 0.636998L52.2576 0.462158V31.2342C50.5797 30.496 49.0323 29.3887 47.6527 27.9705V27.6014L47.6341 9.72874L47.2425 9.98129C44.5579 11.7686 42.8986 14.8768 42.6935 18.4902V18.5291V18.5485C42.6935 18.5874 42.6935 18.6068 42.7122 18.6456H42.6935V22.6864V22.8224V26.4164V43.5702C42.9359 43.8616 43.1783 44.153 43.4393 44.425C45.8629 46.9505 49.0696 48.3298 52.4814 48.3298C55.8931 48.3298 59.1184 46.9505 61.5234 44.425C61.7844 44.153 62.0268 43.8616 62.2692 43.5702V36.9068V26.3969V22.667V18.9759V13.9055C62.1014 9.41791 60.5913 7.20326 57.7574 4.21153ZM51.717 31.6616C51.6797 31.681 51.6424 31.7005 51.6051 31.7199C51.5305 31.7587 51.456 31.7976 51.3814 31.8365C51.3441 31.8559 51.3255 31.8753 51.2882 31.8753C51.1763 31.9336 51.0831 31.9919 50.9712 32.0501C50.9526 32.0696 50.9339 32.0696 50.8967 32.089C50.8221 32.1278 50.7289 32.1861 50.6543 32.225C50.617 32.2444 50.5797 32.2638 50.5424 32.2833C50.4679 32.3221 50.4119 32.361 50.3374 32.3998C50.3001 32.4192 50.2628 32.4387 50.2255 32.4775C50.1696 32.5164 50.095 32.5552 50.0391 32.5941C50.0018 32.6135 49.9645 32.6329 49.9272 32.6718C49.8526 32.7301 49.7594 32.7689 49.6848 32.8272C49.6662 32.8466 49.6475 32.8466 49.6289 32.8661C49.5357 32.9244 49.4425 33.0021 49.3493 33.0603C49.312 33.0798 49.2933 33.0992 49.256 33.1381C49.2001 33.1769 49.1255 33.2352 49.0696 33.274C49.0323 33.2935 48.995 33.3323 48.9577 33.3517C48.9018 33.3906 48.8459 33.4489 48.7713 33.4877C48.734 33.5072 48.6967 33.546 48.6594 33.5654C48.6035 33.6237 48.5289 33.6626 48.473 33.7209C48.4357 33.7403 48.4171 33.7791 48.3798 33.7986C48.2866 33.8763 48.1934 33.954 48.1001 34.0317C48.0815 34.0511 48.0629 34.0705 48.0442 34.09C47.9696 34.1482 47.8951 34.2259 47.8205 34.2842C47.7832 34.3231 47.7459 34.3425 47.7273 34.3814C47.69 34.4202 47.6527 34.4396 47.6154 34.4785L47.112 35.003C47.0375 35.0807 46.9629 35.1779 46.8883 35.2556C46.8697 35.275 46.8697 35.2944 46.851 35.2944C46.7765 35.3916 46.7019 35.4693 46.6273 35.5664C46.6087 35.5858 46.59 35.6247 46.5714 35.6441C46.4782 35.7412 46.4036 35.8384 46.3104 35.9549C46.3104 35.9744 46.2917 35.9744 46.2917 35.9938C46.2172 36.0909 46.1426 36.188 46.068 36.2852C46.0494 36.3046 46.0307 36.3435 46.0121 36.3629C45.9375 36.46 45.8629 36.5766 45.7884 36.6737C45.7138 36.7709 45.6392 36.8874 45.5646 36.9846C45.546 37.004 45.5273 37.0428 45.5087 37.0623C45.4341 37.1594 45.3782 37.2565 45.3036 37.3537C45.3036 37.3537 45.3036 37.3537 45.3036 37.3731C45.2291 37.4702 45.1731 37.5868 45.1172 37.6839C45.0985 37.7033 45.0799 37.7422 45.0799 37.7616C45.024 37.8588 44.968 37.9559 44.9121 38.0336C44.9121 38.053 44.8935 38.053 44.8935 38.0724C44.8375 38.1696 44.7816 38.2862 44.7257 38.3833C44.707 38.4027 44.707 38.4221 44.6884 38.461C44.6325 38.5581 44.5952 38.6358 44.5392 38.733C44.5392 38.7524 44.5206 38.7718 44.5206 38.7718C44.4647 38.869 44.4274 38.9661 44.3715 39.0826C44.3528 39.1021 44.3528 39.1215 44.3342 39.1604C44.2969 39.2381 44.2596 39.3352 44.2223 39.4129C44.2223 39.4323 44.2037 39.4518 44.2037 39.4712C44.1664 39.5683 44.1104 39.6655 44.0732 39.7626C44.0732 39.782 44.0545 39.8014 44.0545 39.8209C44.0172 39.8986 43.9799 39.9763 43.9427 40.0734C43.9427 40.0928 43.924 40.1123 43.924 40.1317C43.8867 40.2288 43.8494 40.326 43.8121 40.4231C43.8121 40.4425 43.7935 40.462 43.7935 40.4814C43.7562 40.5591 43.7376 40.6368 43.7003 40.7145C43.7003 40.7339 43.6816 40.7534 43.6816 40.7728C43.6444 40.8699 43.6071 40.9476 43.5884 41.0448C43.5884 41.0642 43.5698 41.0836 43.5698 41.0836C43.5511 41.1613 43.5139 41.239 43.4952 41.3167C43.4952 41.3362 43.4766 41.3556 43.4766 41.375C43.4393 41.4721 43.4206 41.5498 43.402 41.6276V41.647C43.3834 41.7247 43.3461 41.8024 43.3274 41.8801C43.3274 41.8995 43.3088 41.919 43.3088 41.9384C43.2901 42.0161 43.2528 42.1132 43.2342 42.1909V25.7753V22.1813V21.1129C43.2342 21.1323 43.2528 21.1517 43.2528 21.1906C43.2715 21.2488 43.2901 21.3071 43.3088 21.3654C43.3461 21.482 43.3833 21.618 43.4206 21.7345C43.4393 21.7928 43.4579 21.8705 43.4766 21.9288C43.4766 21.9482 43.4766 21.9482 43.4952 21.9676L43.5139 21.9482V22.0259C43.5511 22.1036 43.5698 22.2008 43.6071 22.2785C43.6257 22.3367 43.6444 22.395 43.6816 22.4727C43.7376 22.6087 43.7935 22.7641 43.8494 22.9001C43.8681 22.939 43.8681 22.9778 43.8867 22.9973C43.9613 23.1721 44.0359 23.3469 44.1104 23.5218C44.1291 23.5801 44.1664 23.6189 44.185 23.6772C44.2409 23.7938 44.2969 23.9297 44.3528 24.0463C44.3901 24.1046 44.4087 24.1629 44.446 24.2211C44.502 24.3377 44.5579 24.4348 44.6138 24.5514C44.6511 24.6097 44.6698 24.668 44.707 24.7262C44.7816 24.8428 44.8375 24.9594 44.9121 25.0759C44.9494 25.1148 44.968 25.1731 44.9867 25.2119C45.0799 25.3673 45.1918 25.5422 45.285 25.6976C45.3036 25.7364 45.3223 25.7559 45.3409 25.7947C45.4341 25.9307 45.5087 26.0473 45.6019 26.1832C45.6392 26.2415 45.6765 26.2998 45.7138 26.3387C45.7884 26.4358 45.8629 26.5524 45.9375 26.6495C45.9748 26.7078 46.0307 26.7661 46.068 26.8243C46.1426 26.9215 46.2358 27.038 46.3104 27.1352C46.3477 27.1934 46.3849 27.2323 46.4222 27.2906C46.4782 27.3489 46.5341 27.4266 46.59 27.4848C46.9442 27.8928 47.8018 28.8253 48.9018 29.7189C48.9764 29.7772 49.0323 29.8355 49.1069 29.8743C49.1255 29.8938 49.1442 29.9132 49.1815 29.9326C50.0391 30.5737 50.9339 31.1177 51.8661 31.5645C51.7915 31.6228 51.7543 31.6422 51.717 31.6616ZM57.4032 4.58064C57.7947 5.00803 58.1676 5.41599 58.5218 5.80453C58.5032 8.11632 58.2981 10.4281 57.9998 12.701C57.4592 16.7418 56.5456 20.8215 54.8864 24.5514C54.2898 25.8918 53.5813 27.1934 52.761 28.3979V1.27808C54.905 2.32713 56.471 3.58987 57.4032 4.58064ZM61.7844 22.2202C61.7844 23.2887 61.7844 24.5125 61.7844 25.8141C61.7844 31.3119 61.7844 38.325 61.7844 42.1132C61.7658 42.0744 61.7658 42.0355 61.7471 42.0161C61.7285 41.9578 61.7099 41.8801 61.6912 41.8218C61.6726 41.7635 61.6539 41.7247 61.6353 41.6664C61.6166 41.6081 61.598 41.5304 61.5794 41.4721C61.5607 41.4139 61.5421 41.3556 61.5234 41.3167C61.5048 41.2584 61.4861 41.1807 61.4488 41.1225C61.4302 41.0642 61.4116 41.0059 61.3929 40.9476C61.3743 40.8699 61.337 40.8116 61.3183 40.7339C61.2997 40.6756 61.2811 40.6174 61.2624 40.5591C61.2251 40.4814 61.2065 40.4037 61.1692 40.326C61.1506 40.2677 61.1319 40.2094 61.0946 40.1511C61.0573 40.0734 61.0201 39.9763 60.9828 39.8986C60.9641 39.8403 60.9455 39.8014 60.9268 39.7432C60.8709 39.6072 60.815 39.4712 60.7404 39.3352C60.7218 39.3158 60.7218 39.2769 60.7031 39.2575C60.6472 39.1409 60.5912 39.0438 60.5353 38.9272C60.5167 38.869 60.4794 38.8301 60.4607 38.7718C60.4235 38.6941 60.3675 38.597 60.3302 38.5193C60.293 38.461 60.2743 38.4027 60.237 38.3444C60.1997 38.2667 60.1438 38.189 60.1065 38.0919C60.0692 38.0336 60.0319 37.9753 59.9947 37.8976C59.9387 37.8199 59.9014 37.7422 59.8455 37.6645C59.8082 37.6062 59.7709 37.5479 59.7337 37.4702C59.6777 37.3925 59.6218 37.3148 59.5845 37.2371C59.5472 37.1788 59.5099 37.1205 59.454 37.0428C59.3981 36.9651 59.3421 36.8874 59.2862 36.7903C59.2489 36.732 59.193 36.6737 59.1557 36.6154C59.0998 36.5377 59.0252 36.4406 58.9693 36.3629C58.932 36.3046 58.8761 36.2463 58.8388 36.188C58.7642 36.0909 58.6896 35.9938 58.615 35.9161C58.5778 35.8772 58.5405 35.8189 58.5032 35.7801C58.3913 35.6441 58.2608 35.4887 58.1303 35.3527C58.0557 35.275 57.9812 35.1779 57.9066 35.1002C57.2914 34.4591 56.21 33.4489 54.6253 32.4193C54.4948 32.3415 54.3643 32.2444 54.2152 32.1667C54.1406 32.1279 54.066 32.089 54.0101 32.0501C53.8796 31.9724 53.7305 31.8947 53.5813 31.817C53.5067 31.7782 53.4135 31.7393 53.339 31.681C53.2644 31.6422 53.2084 31.6033 53.1339 31.5839C53.1712 31.5645 53.1898 31.545 53.2271 31.545C53.2644 31.5256 53.3017 31.5062 53.339 31.4868C53.4135 31.4479 53.4881 31.4091 53.544 31.3896C53.5813 31.3702 53.6186 31.3508 53.6372 31.3313C53.7305 31.2731 53.8423 31.2148 53.9355 31.1759C53.9542 31.1565 53.9728 31.1565 53.9915 31.1371C54.066 31.0982 54.1593 31.04 54.2338 31.0011C54.2711 30.9817 54.3084 30.9622 54.3457 30.9428C54.4203 30.904 54.4762 30.8651 54.5508 30.8263C54.5881 30.8068 54.6253 30.768 54.6626 30.7485C54.7372 30.7097 54.7931 30.6708 54.8677 30.6126C54.905 30.5931 54.9423 30.5543 54.9796 30.5349C55.0728 30.4766 55.1474 30.4183 55.2219 30.36C55.2406 30.3406 55.2592 30.3212 55.2965 30.3212C55.3897 30.2629 55.4829 30.1852 55.5762 30.1269C55.6135 30.1075 55.6507 30.0686 55.688 30.0492C55.744 30.0103 55.8185 29.952 55.8745 29.9132C55.9117 29.8743 55.949 29.8549 56.005 29.8161C56.0609 29.7772 56.1168 29.7189 56.1728 29.6801C56.21 29.6412 56.2473 29.6218 56.2846 29.5829C56.3592 29.5247 56.4151 29.4664 56.4897 29.4275C56.527 29.4081 56.5456 29.3692 56.5829 29.3498C56.6761 29.2721 56.7693 29.1944 56.8626 29.1167C56.8999 29.0778 56.9185 29.0584 56.9558 29.0196C57.0117 28.9613 57.0676 28.903 57.1422 28.8642C57.1795 28.8253 57.2168 28.7864 57.2541 28.767C57.2727 28.7476 57.31 28.7087 57.3473 28.6893C57.5151 28.5339 57.6829 28.3591 57.8507 28.1842C57.9066 28.1259 57.9625 28.0676 57.9998 28.0094C58.0744 27.9317 58.1303 27.8734 58.1862 27.7957C58.2422 27.718 58.2981 27.6597 58.3727 27.582C58.4286 27.5043 58.5032 27.446 58.5591 27.3683C58.615 27.2906 58.671 27.2323 58.7269 27.1546C58.7828 27.0769 58.8388 27.0186 58.8947 26.9409C58.9506 26.8826 59.0066 26.8049 59.0438 26.7466C59.0998 26.6689 59.1557 26.6106 59.2116 26.5329C59.2676 26.4746 59.3049 26.3969 59.3421 26.3387C59.3981 26.261 59.454 26.1833 59.4913 26.1055C59.5286 26.0473 59.5659 25.989 59.6031 25.9113C59.6591 25.8336 59.715 25.7559 59.7523 25.6782C59.7896 25.6199 59.8269 25.5616 59.8455 25.5033C59.9014 25.4256 59.9574 25.3285 59.9947 25.2508C60.0133 25.2119 60.0506 25.1536 60.0692 25.1148C60.1252 25.0176 60.1811 24.9399 60.2184 24.8428C60.237 24.8039 60.2557 24.7651 60.2743 24.7457C60.3302 24.6485 60.3862 24.532 60.4421 24.4348C60.4607 24.4154 60.4607 24.396 60.4794 24.3766C60.9455 23.4635 61.2811 22.5699 61.5607 21.7928V21.7734C61.598 21.6762 61.6166 21.5597 61.6539 21.4625C61.6726 21.4237 61.6726 21.3848 61.6912 21.346C61.7099 21.2683 61.7285 21.21 61.7471 21.1323C61.7471 21.1129 61.7471 21.1129 61.7658 21.0934C61.7844 21.482 61.7844 21.8316 61.7844 22.2202ZM61.7844 14.5466C61.7844 19.9278 60.6472 22.8418 60.3489 23.5218C60.3302 23.5801 60.293 23.6383 60.2743 23.6772C60.2557 23.716 60.237 23.7549 60.2184 23.7937C60.1811 23.8715 60.1438 23.9492 60.1065 24.0074C60.0692 24.0657 60.0506 24.124 60.0133 24.1823C59.976 24.2406 59.9574 24.2988 59.9201 24.3571C59.8828 24.4348 59.8455 24.5125 59.7896 24.5902C59.7709 24.6291 59.7337 24.668 59.715 24.7068C59.6591 24.8039 59.6031 24.9011 59.5472 24.9788C59.5286 24.9982 59.5286 25.0176 59.5099 25.0371C59.4354 25.1536 59.3794 25.2702 59.3049 25.3673C58.9693 25.9113 58.5778 26.4552 58.1117 26.9992C58.0557 27.0575 57.9998 27.1352 57.9439 27.1934C57.888 27.2711 57.832 27.3294 57.7574 27.4071C57.6269 27.5431 57.5151 27.6791 57.3846 27.8151L57.3659 27.8345C57.2914 27.9122 57.1981 28.0094 57.1236 28.0871C57.0863 28.1259 57.0676 28.1454 57.0304 28.1842C56.9744 28.2425 56.8998 28.3008 56.8439 28.359C56.8066 28.3979 56.7693 28.4368 56.7321 28.4562C56.6761 28.5145 56.6202 28.5533 56.5643 28.6116C56.527 28.6504 56.4897 28.6893 56.4524 28.7087C56.3965 28.767 56.3405 28.8059 56.2846 28.8642C56.2473 28.903 56.21 28.9419 56.1541 28.9613C56.0982 29.0001 56.0423 29.0584 55.9863 29.0973C55.949 29.1361 55.8931 29.175 55.8558 29.1944C55.7999 29.2333 55.744 29.2915 55.688 29.3304C55.6507 29.3692 55.5948 29.4081 55.5575 29.4275C55.5016 29.4664 55.4457 29.5052 55.3897 29.5635C55.3524 29.6024 55.2965 29.6218 55.2592 29.6606C55.2033 29.6995 55.1474 29.7383 55.0914 29.7772C55.0542 29.8161 54.9982 29.8355 54.9609 29.8743C54.905 29.9132 54.8491 29.952 54.7931 29.9909C54.7558 30.0298 54.6999 30.0492 54.6626 30.088C54.6067 30.1269 54.5508 30.1657 54.4762 30.2046C54.4389 30.224 54.383 30.2629 54.3457 30.2823C54.2898 30.3212 54.2152 30.36 54.1593 30.3989C54.122 30.4183 54.066 30.4571 54.0288 30.4766C53.9542 30.5154 53.8983 30.5543 53.8237 30.5931C53.7864 30.6126 53.7491 30.632 53.7118 30.6514C53.6372 30.6903 53.5627 30.7291 53.4881 30.768C53.4508 30.7874 53.4322 30.8068 53.3949 30.8068C53.1898 30.9234 52.9847 31.0205 52.7796 31.0982V29.4664C54.9423 26.6689 56.3219 23.2304 57.2727 19.7918C58.3354 15.9647 58.9133 11.9823 59.1371 7.99976C59.1557 7.49466 59.193 6.98956 59.193 6.48447C60.7963 8.52428 61.6726 10.5252 61.8031 13.8084L61.7844 14.5466Z" fill="#BAAAB4"/>
</svg>
