<svg width="117" height="34" viewBox="0 0 117 34" fill="none" xmlns="http://www.w3.org/2000/svg">
<g clip-path="url(#clip0)">
<path d="M99.0854 23.2346C97.8171 21.8264 97.183 19.8959 97.183 17.4203C97.183 14.922 97.8171 12.9687 99.1081 11.5606C101.667 8.74426 106.922 8.74426 109.504 11.5606C110.772 12.946 111.429 14.8992 111.429 17.4203C111.429 19.8959 110.794 21.8491 109.526 23.2346C106.831 26.1417 101.735 26.1417 99.0854 23.2346ZM101.396 17.125C101.396 23.2119 107.193 23.2119 107.193 17.125C107.171 11.6741 101.396 11.6741 101.396 17.125ZM96.2318 14.286L92.1325 15.2172C91.8833 13.7409 91.2718 12.9233 89.7997 12.9006C87.7614 12.8552 86.8102 14.922 86.8102 17.125C86.8102 19.3962 87.5576 21.9173 89.7997 21.8719C90.9095 21.8491 92.0645 21.2359 92.3816 19.6006L96.3224 20.1912C95.575 23.6434 93.1743 25.4149 89.6865 25.4149C87.5349 25.4149 85.7684 24.62 84.5001 23.2119C83.2318 21.8037 82.5976 19.8732 82.5976 17.3976C82.5976 14.8992 83.2318 12.946 84.5227 11.5379C85.8137 10.1297 87.5349 9.44834 89.7091 9.44834C91.4983 9.44834 92.9025 9.85716 93.967 10.6521C95.0088 11.4243 95.7788 12.6507 96.2318 14.286ZM33.1795 14.5131L29.0349 13.8772C29.9408 10.5839 32.4548 9.58461 35.6708 9.58461C39.8154 9.58461 41.9896 10.7884 41.9443 15.3081L41.9217 17.3521V24.9607H37.8903V23.6888C37.3241 24.1658 36.7353 24.5519 36.1011 24.8244C35.3311 25.1651 34.4931 25.3241 33.6098 25.3241C32.0471 25.3241 30.8241 24.8926 29.9182 24.0522C29.0123 23.2119 28.4913 21.9627 28.4687 20.6454C28.4461 17.7155 30.7788 16.0803 33.0663 15.7396C35.014 15.4443 36.8711 15.3081 37.845 15.3081V14.6721C37.845 13.2867 36.8032 12.9006 35.6028 12.8552C34.6063 12.8097 33.3833 13.1277 33.1795 14.5131ZM77.3433 19.7369L81.1255 20.9179C80.129 23.7797 77.4792 25.4149 74.5349 25.4149C71.9304 25.4149 69.96 24.461 68.7143 22.7122C67.7178 21.3268 67.2422 19.5779 67.2422 17.4884C67.2422 14.9674 67.899 12.9914 69.19 11.5606C70.4809 10.1297 72.1342 9.42563 74.1046 9.42563C76.3241 9.42563 78.0907 10.1751 79.3816 11.6741C80.6725 13.1731 81.284 15.6487 81.2387 18.7149H71.2962C71.3415 20.6908 72.406 21.8946 74.5349 21.8946C75.9391 21.9173 76.9809 21.0088 77.3433 19.7369ZM77.1847 15.4898C77.1394 13.8999 75.9617 12.9233 74.3537 12.9233C72.7231 12.9233 71.3642 13.8772 71.3868 15.4898H77.1847ZM65.9739 9.78902V13.6274H62.9844V18.4423C62.9844 19.6915 63.007 20.3956 63.0523 20.6C63.3467 21.7583 64.8415 22.0081 66.0645 21.1224L66.3136 24.8699C64.8868 25.4831 62.3729 25.5285 60.9008 24.9153C60.3119 24.6654 59.9042 24.3475 59.6325 23.9614C59.3607 23.5753 59.1795 23.0529 59.0663 22.3942C58.9983 21.94 58.9304 20.9861 58.9304 19.5552V13.6274H56.1673V9.78902H58.953V5.97339H62.9844V9.78902H65.9739ZM49.0785 24.9834H44.8886V9.78902H49.0332V11.9467C50.46 9.65275 52.6342 9.06223 55.6464 10.0389L54.6499 14.3087C51.0715 12.8097 49.0785 14.6721 49.0785 18.0335V24.9834ZM37.8903 18.3515C36.2823 18.4423 35.1046 18.0335 33.5192 19.101C32.4548 19.8051 32.3642 20.6454 33.1795 21.6902C34.1081 22.8712 37.8677 21.5312 37.8677 19.1464V18.3515H37.8903Z" fill="white"/>
<path d="M0.973868 33.909H0V29.1167H0.973868V33.909ZM100.444 33.909H99.4704V29.1167H100.444V33.909ZM70.7753 33.909H69.8014V29.1167H70.7753V33.909ZM52.4077 33.909H51.4338V29.1167H52.4077V33.909ZM109.096 32.2964H109.979L109.571 29.5028H109.526L109.096 32.2964ZM107.76 33.909L108.847 29.1167H110.274L111.406 33.909H110.296L110.115 32.9324H109.028L108.847 33.909H107.76ZM89.9129 31.2517H90.3659C90.9547 31.2517 91.2265 31.1381 91.2265 30.4795C91.2265 29.9117 91 29.7754 90.4565 29.7754H89.9129V31.2517ZM89.0523 33.9317V29.1394H90.2526C91.3624 29.1394 92.0871 29.2757 92.0871 30.3659C92.0871 31.4561 91.6115 31.4788 91.453 31.5696C91.9059 31.6605 92.1098 32.0693 92.1098 32.4781L92.1324 33.9544H91.2038L91.1812 32.6144C91.1812 32.1147 91.0453 31.933 90.7735 31.933H89.9129V33.9544H89.0523V33.9317ZM79.4495 32.2964H80.3328L79.9251 29.5028H79.8798L79.4495 32.2964ZM78.0906 33.909L79.1777 29.1167H80.6045L81.7369 33.909H80.6272L80.446 32.9324H79.3589L79.1777 33.909H78.0906ZM59.7457 33.909V29.1167H60.493V33.2049H62.4861V33.9317H59.7457V33.909ZM41.8763 31.1154H42.1707C42.4878 31.1154 42.6916 31.07 42.8275 30.9564C42.9408 30.8429 43.0087 30.6612 43.0087 30.3886C43.0087 30.1388 42.9408 29.9571 42.8275 29.8435C42.7143 29.7527 42.4878 29.6845 42.1934 29.6845H41.8763V31.1154ZM41.8763 33.2958H42.216C42.5331 33.2958 42.7596 33.2276 42.8955 33.1141C43.0314 33.0005 43.0993 32.7734 43.0993 32.4781C43.0993 32.2056 43.0314 32.0239 42.9181 31.9103C42.7822 31.7968 42.5558 31.7513 42.2387 31.7513H41.899V33.2958H41.8763ZM40.9024 33.909V29.1167H42.1254C42.8502 29.1167 43.3258 29.2076 43.5976 29.3893C43.8693 29.571 44.0052 29.8889 44.0052 30.3659C44.0052 30.6612 43.9599 30.8883 43.8467 31.0473C43.7335 31.2062 43.5749 31.3198 43.3484 31.4107C43.5976 31.4788 43.8014 31.6151 43.9146 31.7968C44.0279 31.9785 44.0958 32.2283 44.0958 32.5463C44.0958 33.0459 43.9373 33.3866 43.6429 33.6137C43.3484 33.8409 42.8502 33.9317 42.1707 33.9317H40.9024V33.909ZM31.3676 30.3432V32.6598C31.3676 32.9097 31.4129 33.0914 31.5035 33.2049C31.5941 33.3185 31.7526 33.3866 31.9565 33.3866C32.1603 33.3866 32.3188 33.3185 32.4094 33.2049C32.5 33.0914 32.5453 32.9097 32.5453 32.6598V30.3432C32.5453 30.0934 32.5 29.9117 32.4094 29.7981C32.3188 29.6845 32.1603 29.6164 31.9565 29.6164C31.7526 29.6164 31.5941 29.6845 31.5035 29.7981C31.4129 29.9117 31.3676 30.0934 31.3676 30.3432ZM30.3484 30.7293C30.3484 30.1161 30.4843 29.6845 30.7335 29.412C30.9826 29.1394 31.3902 29.0032 31.9565 29.0032C32.5227 29.0032 32.9303 29.1394 33.1794 29.412C33.4286 29.6845 33.5645 30.1161 33.5645 30.7293V32.2964C33.5645 32.9097 33.4286 33.3412 33.1794 33.6137C32.9303 33.8863 32.5227 34.0226 31.9565 34.0226C31.3902 34.0226 30.9826 33.8863 30.7335 33.6137C30.4843 33.3412 30.3484 32.9097 30.3484 32.2964V30.7293ZM18.7526 33.909V29.1167H20.0209H20.0662L20.8815 32.3419L21.6969 29.1167H21.7422H23.0105V33.909H22.1498V30.0479L21.9007 30.9564L21.1307 33.909H21.0854H20.6324H20.6098L19.8397 30.9564L19.5906 30.0479V33.909H18.7526ZM8.31185 33.909V29.1167H9.39896L10.6672 32.4554V29.1167H11.4146V33.909H10.5767L9.01394 30.1615V33.909H8.31185Z" fill="white"/>
<path d="M113.535 8.40339H113.784C114.124 8.40339 114.35 8.38068 114.441 8.35797C114.531 8.33526 114.599 8.28983 114.645 8.2217C114.69 8.15356 114.713 8.08543 114.713 7.99458C114.713 7.90373 114.69 7.83559 114.645 7.76746C114.599 7.69932 114.531 7.6539 114.441 7.63118C114.35 7.60847 114.146 7.58576 113.784 7.58576H113.535V8.40339ZM112.923 10.0841V7.13152H113.535C114.101 7.13152 114.418 7.13152 114.486 7.13152C114.69 7.15423 114.849 7.17694 114.962 7.24508C115.075 7.31321 115.166 7.40406 115.234 7.54034C115.301 7.67661 115.347 7.81288 115.347 7.97186C115.347 8.17627 115.279 8.35797 115.143 8.51696C115.007 8.67594 114.803 8.76679 114.554 8.81221C114.645 8.83492 114.713 8.88035 114.758 8.92577C114.803 8.9712 114.871 9.03933 114.962 9.15289C114.984 9.17561 115.052 9.31188 115.188 9.51629L115.528 10.1068H114.781L114.531 9.62985C114.373 9.31188 114.214 9.10747 114.124 9.01662C114.011 8.92577 113.875 8.88035 113.716 8.88035H113.558V10.1068H112.923V10.0841ZM114.192 6.33659C113.807 6.33659 113.444 6.42744 113.082 6.63185C112.72 6.81355 112.448 7.10881 112.244 7.4722C112.04 7.83559 111.95 8.2217 111.95 8.6078C111.95 8.99391 112.04 9.38001 112.244 9.7207C112.448 10.0841 112.72 10.3566 113.082 10.561C113.444 10.7655 113.807 10.8563 114.192 10.8563C114.577 10.8563 114.962 10.7655 115.301 10.561C115.664 10.3566 115.936 10.0841 116.139 9.7207C116.343 9.3573 116.434 8.99391 116.434 8.6078C116.434 8.2217 116.343 7.83559 116.139 7.4722C115.936 7.10881 115.664 6.83626 115.301 6.63185C114.962 6.45015 114.577 6.33659 114.192 6.33659ZM114.192 5.7915C114.667 5.7915 115.12 5.90506 115.573 6.1549C116.004 6.40473 116.366 6.74541 116.615 7.17694C116.864 7.63118 117 8.08543 117 8.58509C117 9.06205 116.887 9.539 116.638 9.97053C116.389 10.4021 116.049 10.7655 115.596 11.0153C115.166 11.2651 114.69 11.3787 114.214 11.3787C113.716 11.3787 113.263 11.2651 112.81 11.0153C112.38 10.7655 112.017 10.4248 111.768 9.97053C111.519 9.539 111.406 9.06205 111.406 8.58509C111.406 8.08543 111.542 7.63118 111.791 7.17694C112.04 6.7227 112.38 6.38202 112.833 6.1549C113.263 5.90506 113.716 5.7915 114.192 5.7915Z" fill="white"/>
<path fill-rule="evenodd" clip-rule="evenodd" d="M1.7892 0H23.7805C24.7544 0 25.5697 0.794923 25.5697 1.79426V23.8023C25.5697 24.3019 25.3659 24.7335 25.0488 25.0514L19.6812 19.7141V5.85972H5.86585V19.6914L0.520906 25.0514C0.203833 24.7335 0 24.2792 0 23.8023V1.79426C0 0.794923 0.792683 0 1.7892 0Z" fill="#E3A414"/>
<path fill-rule="evenodd" clip-rule="evenodd" d="M25.0262 25.0515C24.7091 25.3694 24.2561 25.5738 23.7579 25.5738H1.78923C1.29097 25.5738 0.860656 25.3694 0.520935 25.0515L5.86588 19.7141H19.7039L25.0262 25.0515Z" fill="#41983A"/>
</g>
<defs>
<clipPath id="clip0">
<rect width="117" height="34" fill="white"/>
</clipPath>
</defs>
</svg>
