<svg width="108" height="50" viewBox="0 0 108 50" fill="none" xmlns="http://www.w3.org/2000/svg">
<path d="M11.0867 49.9016H9.29957L9.14747 48.9957L8.57712 45.451H2.60743L2.0941 48.9957L1.94202 49.9016H0.154907L0.364032 48.6412L4.75575 19.752H6.48582L10.8776 48.6412L11.0867 49.9016ZM8.32998 43.5999L5.63029 25.8173L2.93062 43.5999H8.32998Z" fill="white"/>
<path d="M15.0981 25.0689C15.0981 25.9747 15.3072 26.8609 15.6685 27.7668C16.1247 28.9877 16.9993 30.3662 18.216 31.7841C21.5431 35.5455 23.1781 39.1887 23.1781 42.6349C23.1781 43.2257 23.1211 43.7968 23.026 44.3876C22.6648 46.7704 21.6952 48.464 20.1172 49.3699C19.3948 49.7834 18.6343 50 17.7598 50C17.1514 50 16.543 49.9016 15.8776 49.685L16.486 47.9323C16.9423 48.0898 17.3605 48.1883 17.7598 48.1883C18.3301 48.1883 18.7864 48.0308 19.2427 47.7748C20.3073 47.0855 21.0298 45.8645 21.2769 44.0725C21.334 43.5999 21.372 43.0682 21.372 42.5955C21.372 41.3352 21.1248 40.0551 20.6495 38.7357C19.9271 36.983 18.6533 35.0925 16.8662 33.0248C14.4707 30.3269 13.292 27.688 13.292 25.1476C13.292 24.7341 13.349 24.3008 13.3871 23.8873C13.6912 22.1346 14.4137 20.8743 15.5924 20.185C16.2008 19.8109 16.8092 19.6533 17.4366 19.6533C17.8929 19.6533 18.3491 19.7518 18.8244 19.9093L18.216 21.662C17.9119 21.5635 17.6457 21.5044 17.3985 21.5044C17.0373 21.5044 16.7902 21.6029 16.524 21.7605C16.1628 21.918 15.8586 22.2331 15.6495 22.6663C15.4023 23.0799 15.2502 23.6116 15.1361 24.2024C15.0981 24.4978 15.0981 24.8129 15.0981 25.0689Z" fill="white"/>
<path d="M25.2505 19.7322H36.1823V21.5833H31.6384V49.9015H29.8513V21.5833H25.2505V19.7322Z" fill="white"/>
<path d="M85.9931 49.9015H83.9589L83.6547 49.3698L80.1755 43.0681C79.358 43.9149 78.4454 44.6041 77.4758 45.1752C76.9055 45.5494 76.4492 46.0811 76.088 46.7704C75.7838 47.3611 75.6317 48.0307 75.6317 48.779V49.8818H73.8446V19.7322H77.0196C78.0462 19.7322 79.0158 20.0473 79.8713 20.6774C80.7459 21.3667 81.4493 22.2725 82.1147 23.3753C82.7231 24.4781 83.2364 25.8172 83.5977 27.3533C83.9589 28.8893 84.168 30.5238 84.168 32.2765C84.168 34.2261 83.9209 35.9787 83.4075 37.5148C82.8372 39.0508 82.1908 40.4293 81.4113 41.5911L85.2517 48.4639L85.9931 49.9015ZM80.5748 39.5825C81.1451 38.6372 81.5444 37.5148 81.9056 36.2938C82.2668 35.0728 82.4189 33.7534 82.4189 32.2765C82.4189 30.8389 82.2668 29.4801 82.0197 28.141C81.7155 26.8807 81.2972 25.7582 80.8409 24.7538C80.3276 23.7495 79.7763 23.0012 79.1109 22.4301C78.4454 21.8393 77.723 21.5833 77.0196 21.5833H75.6317V44.3481C75.9359 44.0331 76.2401 43.7574 76.5443 43.5998C77.2667 43.2257 77.9702 42.694 78.6926 42.0047C79.339 41.3155 80.0044 40.5277 80.5748 39.5825Z" fill="white"/>
<path d="M90.2137 19.7322H92.0009V49.9015H90.2137V19.7322Z" fill="white"/>
<path d="M107.229 49.9016H105.442L105.29 48.9957L104.72 45.451H98.75L98.2367 48.9957L98.0846 49.9016H96.2975L96.5066 48.6412L100.898 19.752H102.628L107.02 48.6412L107.229 49.9016ZM104.473 43.5999L101.773 25.8173L99.0732 43.5999H104.473Z" fill="white"/>
<path d="M6.46679 14.3574H5.02191V15.6573H6.67592V15.8937H4.75574V12.7029H6.65691V12.9392H5.02191V14.1407H6.46679V14.3574Z" fill="white"/>
<path d="M9.37561 15.892V12.7017H10.2311C10.4783 12.7017 10.7064 12.7607 10.9155 12.8789C11.1247 12.9971 11.2768 13.1743 11.3908 13.3909C11.5049 13.6075 11.562 13.8636 11.562 14.1393V14.4347C11.562 14.7104 11.5049 14.9664 11.3908 15.183C11.2768 15.3996 11.1247 15.5769 10.9155 15.695C10.7064 15.8132 10.4783 15.8723 10.2121 15.8723H9.37561V15.892ZM9.64178 12.938V15.6753H10.2311C10.5543 15.6753 10.8205 15.5572 11.0106 15.3405C11.2007 15.1239 11.2958 14.8088 11.2958 14.4347V14.159C11.2958 13.7848 11.2007 13.4894 11.0106 13.2728C10.8205 13.0561 10.5543 12.938 10.2501 12.938H9.64178Z" fill="white"/>
<path d="M14.6987 15.892H14.4327V12.7017H14.6987V15.892Z" fill="white"/>
<path d="M19.3948 14.3953H17.9689V15.892H17.7028V12.7017H19.6039V12.938H17.9499V14.1786H19.3758V14.3953H19.3948Z" fill="white"/>
<path d="M22.6075 15.892H22.3416V12.7017H22.6075V15.892Z" fill="white"/>
<path d="M27.779 14.8879C27.741 15.2226 27.6269 15.4786 27.4368 15.6558C27.2467 15.833 26.9805 15.9315 26.6573 15.9315C26.4292 15.9315 26.22 15.8724 26.0489 15.7543C25.8778 15.6361 25.7448 15.4786 25.6497 15.262C25.5546 15.0454 25.4976 14.7894 25.4976 14.5138V14.1003C25.4976 13.8246 25.5546 13.5686 25.6497 13.352C25.7448 13.1354 25.8778 12.9582 26.0679 12.8401C26.2581 12.7219 26.4482 12.6628 26.6953 12.6628C27.0185 12.6628 27.2847 12.7613 27.4748 12.9385C27.6649 13.1157 27.779 13.3717 27.798 13.7064H27.5319C27.4748 13.1748 27.1897 12.8991 26.6763 12.8991C26.3912 12.8991 26.182 12.9976 26.0109 13.2142C25.8398 13.4308 25.7638 13.7261 25.7638 14.1003V14.4941C25.7638 14.8682 25.8398 15.1636 26.0109 15.3802C26.163 15.5967 26.3912 15.7149 26.6573 15.7149C26.9235 15.7149 27.1326 15.6558 27.2657 15.518C27.3988 15.3802 27.4938 15.1832 27.5129 14.9076H27.779V14.8879Z" fill="white"/>
<path d="M30.8967 15.892H30.6307V12.7017H30.8967V15.892Z" fill="white"/>
<path d="M36.1632 14.4744C36.1632 14.7697 36.1062 15.0257 36.0111 15.2423C35.916 15.4589 35.783 15.6361 35.5929 15.7543C35.4027 15.8724 35.1936 15.9315 34.9655 15.9315C34.6042 15.9315 34.3191 15.7937 34.0909 15.5377C33.8628 15.262 33.7677 14.9076 33.7677 14.4547V14.12C33.7677 13.8246 33.8247 13.5686 33.9198 13.352C34.0149 13.1354 34.1669 12.9582 34.3381 12.8401C34.5282 12.7219 34.7373 12.6628 34.9655 12.6628C35.1936 12.6628 35.4027 12.7219 35.5929 12.8401C35.783 12.9582 35.916 13.1157 36.0111 13.3323C36.1062 13.5489 36.1632 13.8049 36.1632 14.0806V14.4744ZM35.897 14.12C35.897 13.7458 35.821 13.4308 35.6499 13.2142C35.4788 12.9976 35.2506 12.8794 34.9655 12.8794C34.6803 12.8794 34.4521 12.9976 34.281 13.2142C34.1099 13.4308 34.0339 13.7458 34.0339 14.12V14.4547C34.0339 14.8288 34.1099 15.1242 34.281 15.3605C34.4521 15.5771 34.6803 15.6952 34.9655 15.6952C35.2506 15.6952 35.4978 15.5771 35.6499 15.3605C35.821 15.1439 35.897 14.8485 35.897 14.4547V14.12Z" fill="white"/>
<path d="M63.5022 22.0166V24.5176C65.8597 27.117 67.1525 30.4845 67.1525 34.0685C67.1525 37.7905 65.7456 41.2958 63.198 43.9346C60.6504 46.5734 57.2663 48.0307 53.6731 48.0307C50.0799 48.0307 46.6958 46.5734 44.1482 43.9346C41.6007 41.2958 40.1938 37.7905 40.1938 34.0685C40.1938 30.386 41.5626 26.9201 44.0532 24.3009V21.8394C40.6311 24.7342 38.4447 29.1454 38.4447 34.0685C38.4447 42.7924 45.2699 49.8424 53.6731 49.8424C62.0763 49.8424 68.9015 42.7727 68.9015 34.0685C68.9206 29.2241 66.8102 24.9114 63.5022 22.0166Z" fill="white"/>
<path d="M44.4903 20.9138L44.4713 20.9333C44.4713 20.9528 44.4903 20.9722 44.4903 20.9917V20.9138Z" fill="#92868D"/>
<path d="M62.5937 22.1039C62.9798 20.9262 63.274 14.7481 63.274 14.7481C62.8327 4.4577 54.3564 1.15628 53.7681 0.885986V31.2938V31.4096C55.6619 30.676 57.4822 29.4017 58.8244 28.0696C61.0492 25.9459 62.0237 23.6484 62.5937 22.1039Z" fill="#474C62"/>
<path d="M58.9509 4.20936C57.9438 3.14999 56.2467 1.8017 53.8968 0.703812C53.8595 0.684551 53.8222 0.665293 53.8036 0.665293L53.4492 0.491943V31.0017C51.7708 30.2698 50.2228 29.1719 48.8428 27.7659V27.3999L48.8241 9.67955L48.4325 9.92995C45.7469 11.702 44.0871 14.7838 43.882 18.3664V18.4049V18.4242C43.882 18.4627 43.882 18.4819 43.9006 18.5205H43.882V22.5268V22.6616V26.225V43.2326C44.1244 43.5215 44.3668 43.8105 44.6279 44.0801C47.0524 46.5841 50.2601 47.9516 53.673 47.9516C57.0859 47.9516 60.3123 46.5841 62.7181 44.0801C62.9792 43.8105 63.2217 43.5215 63.4641 43.2326V36.626V26.2057V22.5075V18.8479V13.8207C63.2963 9.37137 61.7856 7.17559 58.9509 4.20936ZM52.9084 31.4255C52.8711 31.4448 52.8338 31.464 52.7965 31.4833C52.7219 31.5218 52.6473 31.5603 52.5727 31.5988C52.5354 31.6181 52.5168 31.6374 52.4795 31.6374C52.3676 31.6952 52.2743 31.7529 52.1624 31.8107C52.1438 31.83 52.1251 31.83 52.0878 31.8492C52.0132 31.8878 51.92 31.9455 51.8454 31.9841C51.8081 32.0033 51.7708 32.0226 51.7335 32.0419C51.6589 32.0804 51.6029 32.1189 51.5283 32.1574C51.491 32.1767 51.4537 32.1959 51.4164 32.2345C51.3605 32.273 51.2859 32.3115 51.2299 32.35C51.1926 32.3693 51.1553 32.3886 51.118 32.4271C51.0434 32.4849 50.9502 32.5234 50.8756 32.5812C50.8569 32.6004 50.8383 32.6004 50.8196 32.6197C50.7264 32.6775 50.6331 32.7545 50.5399 32.8123C50.5026 32.8316 50.4839 32.8508 50.4466 32.8894C50.3907 32.9279 50.3161 32.9856 50.2601 33.0242C50.2228 33.0434 50.1855 33.082 50.1482 33.1012C50.0923 33.1397 50.0363 33.1975 49.9617 33.2361C49.9245 33.2553 49.8871 33.2938 49.8499 33.3131C49.7939 33.3709 49.7193 33.4094 49.6634 33.4672C49.6261 33.4865 49.6074 33.525 49.5701 33.5442C49.4769 33.6213 49.3836 33.6983 49.2904 33.7754C49.2717 33.7946 49.2531 33.8139 49.2344 33.8331C49.1598 33.8909 49.0852 33.968 49.0106 34.0258C48.9733 34.0643 48.936 34.0835 48.9174 34.1221C48.8801 34.1606 48.8428 34.1798 48.8055 34.2184L48.3019 34.7384C48.2273 34.8155 48.1527 34.9118 48.0781 34.9888C48.0595 35.0081 48.0595 35.0273 48.0408 35.0273C47.9662 35.1237 47.8916 35.2007 47.817 35.297C47.7984 35.3163 47.7797 35.3548 47.7611 35.374C47.6678 35.4704 47.5932 35.5667 47.5 35.6822C47.5 35.7015 47.4813 35.7015 47.4813 35.7207C47.4067 35.8171 47.3321 35.9134 47.2575 36.0097C47.2389 36.0289 47.2203 36.0675 47.2016 36.0867C47.127 36.183 47.0524 36.2986 46.9778 36.3949C46.9032 36.4912 46.8286 36.6068 46.754 36.7031C46.7354 36.7223 46.7167 36.7609 46.6981 36.7801C46.6235 36.8764 46.5675 36.9727 46.4929 37.069C46.4929 37.069 46.4929 37.069 46.4929 37.0883C46.4183 37.1846 46.3624 37.3002 46.3064 37.3965C46.2878 37.4157 46.2691 37.4543 46.2691 37.4735C46.2132 37.5698 46.1572 37.6661 46.1013 37.7432C46.1013 37.7624 46.0826 37.7624 46.0826 37.7817C46.0267 37.878 45.9707 37.9936 45.9148 38.0899C45.8961 38.1091 45.8961 38.1284 45.8775 38.1669C45.8215 38.2632 45.7842 38.3403 45.7283 38.4366C45.7283 38.4558 45.7096 38.4751 45.7096 38.4751C45.6537 38.5714 45.6164 38.6677 45.5604 38.7833C45.5418 38.8025 45.5418 38.8218 45.5231 38.8603C45.4858 38.9374 45.4485 39.0337 45.4112 39.1107C45.4112 39.13 45.3926 39.1493 45.3926 39.1685C45.3553 39.2648 45.2993 39.3611 45.262 39.4574C45.262 39.4767 45.2434 39.496 45.2434 39.5152C45.2061 39.5923 45.1688 39.6693 45.1315 39.7656C45.1315 39.7849 45.1128 39.8041 45.1128 39.8234C45.0755 39.9197 45.0382 40.016 45.0009 40.1123C45.0009 40.1316 44.9823 40.1508 44.9823 40.1701C44.945 40.2471 44.9263 40.3242 44.889 40.4012C44.889 40.4205 44.8704 40.4398 44.8704 40.459C44.8331 40.5553 44.7958 40.6324 44.7771 40.7287C44.7771 40.7479 44.7585 40.7672 44.7585 40.7672C44.7398 40.8442 44.7025 40.9213 44.6839 40.9983C44.6839 41.0176 44.6652 41.0368 44.6652 41.0561C44.6279 41.1524 44.6093 41.2295 44.5906 41.3065V41.3258C44.572 41.4028 44.5347 41.4799 44.516 41.5569C44.516 41.5762 44.4974 41.5954 44.4974 41.6147C44.4788 41.6917 44.4414 41.788 44.4228 41.8651V25.5893V22.026V20.9666C44.4228 20.9859 44.4414 21.0052 44.4414 21.0437C44.4601 21.1015 44.4788 21.1593 44.4974 21.217C44.5347 21.3326 44.572 21.4674 44.6093 21.583C44.6279 21.6408 44.6466 21.7178 44.6652 21.7756C44.6652 21.7949 44.6652 21.7949 44.6839 21.8141L44.7025 21.7949V21.8719C44.7398 21.949 44.7585 22.0453 44.7958 22.1223C44.8144 22.1801 44.8331 22.2379 44.8704 22.3149C44.9263 22.4498 44.9823 22.6038 45.0382 22.7387C45.0569 22.7772 45.0569 22.8157 45.0755 22.835C45.1501 23.0083 45.2247 23.1817 45.2993 23.355C45.318 23.4128 45.3553 23.4513 45.3739 23.5091C45.4299 23.6247 45.4858 23.7595 45.5418 23.8751C45.5791 23.9329 45.5977 23.9907 45.635 24.0484C45.691 24.164 45.7469 24.2603 45.8029 24.3759C45.8402 24.4337 45.8588 24.4914 45.8961 24.5492C45.9707 24.6648 46.0267 24.7804 46.1013 24.8959C46.1386 24.9345 46.1572 24.9922 46.1759 25.0308C46.2691 25.1849 46.381 25.3582 46.4743 25.5123C46.4929 25.5508 46.5116 25.5701 46.5302 25.6086C46.6235 25.7434 46.6981 25.859 46.7913 25.9938C46.8286 26.0516 46.8659 26.1094 46.9032 26.1479C46.9778 26.2442 47.0524 26.3598 47.127 26.4561C47.1643 26.5139 47.2202 26.5717 47.2575 26.6294C47.3321 26.7257 47.4254 26.8413 47.5 26.9376C47.5373 26.9954 47.5746 27.0339 47.6119 27.0917C47.6678 27.1495 47.7238 27.2265 47.7797 27.2843C48.1341 27.6888 48.992 28.6133 50.0923 29.4994C50.1669 29.5572 50.2228 29.6149 50.2974 29.6535C50.3161 29.6727 50.3347 29.692 50.372 29.7112C51.2299 30.3469 52.1251 30.8862 53.0576 31.3292C52.983 31.387 52.9457 31.4062 52.9084 31.4255ZM58.5965 4.57532C58.9882 4.99907 59.3612 5.40356 59.7155 5.78878C59.6969 8.08087 59.4917 10.373 59.1933 12.6265C58.6525 16.6329 57.7387 20.6777 56.0788 24.3759C55.482 25.7049 54.7734 26.9954 53.9528 28.1896V1.30091C56.0975 2.34102 57.6641 3.593 58.5965 4.57532ZM62.9792 22.0645C62.9792 23.1239 62.9792 24.3374 62.9792 25.6279C62.9792 31.0788 62.9792 38.0321 62.9792 41.788C62.9606 41.7495 62.9606 41.711 62.9419 41.6917C62.9233 41.6339 62.9046 41.5569 62.886 41.4991C62.8673 41.4413 62.8487 41.4028 62.83 41.345C62.8114 41.2872 62.7927 41.2102 62.7741 41.1524C62.7554 41.0946 62.7368 41.0369 62.7181 40.9983C62.6995 40.9405 62.6808 40.8635 62.6435 40.8057C62.6249 40.7479 62.6062 40.6901 62.5876 40.6324C62.5689 40.5553 62.5316 40.4975 62.513 40.4205C62.4943 40.3627 62.4757 40.3049 62.457 40.2471C62.4197 40.1701 62.4011 40.0931 62.3638 40.016C62.3451 39.9582 62.3265 39.9004 62.2892 39.8427C62.2519 39.7656 62.2146 39.6693 62.1773 39.5923C62.1586 39.5345 62.14 39.496 62.1213 39.4382C62.0654 39.3033 62.0094 39.1685 61.9348 39.0337C61.9162 39.0144 61.9162 38.9759 61.8975 38.9566C61.8416 38.8411 61.7856 38.7448 61.7297 38.6292C61.711 38.5714 61.6737 38.5329 61.6551 38.4751C61.6178 38.3981 61.5618 38.3018 61.5245 38.2247C61.4872 38.1669 61.4686 38.1091 61.4313 38.0514C61.394 37.9743 61.338 37.8973 61.3007 37.801C61.2634 37.7432 61.2261 37.6854 61.1889 37.6084C61.1329 37.5313 61.0956 37.4543 61.0397 37.3772C61.0024 37.3194 60.965 37.2617 60.9277 37.1846C60.8718 37.1076 60.8159 37.0305 60.7786 36.9535C60.7413 36.8957 60.704 36.8379 60.648 36.7609C60.5921 36.6838 60.5361 36.6068 60.4802 36.5105C60.4429 36.4527 60.3869 36.3949 60.3496 36.3371C60.2937 36.2601 60.2191 36.1638 60.1631 36.0867C60.1258 36.0289 60.0699 35.9711 60.0326 35.9134C59.958 35.8171 59.8834 35.7208 59.8088 35.6437C59.7715 35.6052 59.7342 35.5474 59.6969 35.5089C59.585 35.3741 59.4544 35.22 59.3239 35.0851C59.2493 35.0081 59.1747 34.9118 59.1001 34.8347C58.4846 34.1991 57.403 33.1975 55.8177 32.1767C55.6872 32.0996 55.5567 32.0033 55.4075 31.9263C55.3329 31.8878 55.2583 31.8492 55.2023 31.8107C55.0718 31.7337 54.9226 31.6566 54.7734 31.5796C54.6988 31.5411 54.6055 31.5025 54.5309 31.4448C54.4563 31.4062 54.4004 31.3677 54.3258 31.3485C54.3631 31.3292 54.3817 31.3099 54.419 31.3099C54.4563 31.2907 54.4936 31.2714 54.5309 31.2521C54.6055 31.2136 54.6801 31.1751 54.7361 31.1558C54.7734 31.1366 54.8107 31.1173 54.8293 31.098C54.9226 31.0403 55.0345 30.9825 55.1277 30.944C55.1464 30.9247 55.165 30.9247 55.1837 30.9054C55.2583 30.8669 55.3515 30.8091 55.4261 30.7706C55.4634 30.7514 55.5007 30.7321 55.538 30.7128C55.6126 30.6743 55.6685 30.6358 55.7431 30.5973C55.7804 30.578 55.8177 30.5395 55.855 30.5202C55.9296 30.4817 55.9856 30.4432 56.0602 30.3854C56.0975 30.3661 56.1348 30.3276 56.1721 30.3083C56.2653 30.2506 56.3399 30.1928 56.4145 30.135C56.4332 30.1157 56.4518 30.0965 56.4891 30.0965C56.5824 30.0387 56.6756 29.9616 56.7689 29.9039C56.8062 29.8846 56.8435 29.8461 56.8808 29.8268C56.9367 29.7883 57.0113 29.7305 57.0673 29.692C57.1046 29.6535 57.1419 29.6342 57.1978 29.5957C57.2538 29.5572 57.3097 29.4994 57.3657 29.4608C57.403 29.4223 57.4403 29.4031 57.4776 29.3645C57.5522 29.3068 57.6081 29.249 57.6827 29.2104C57.72 29.1912 57.7387 29.1527 57.776 29.1334C57.8692 29.0564 57.9625 28.9793 58.0557 28.9023C58.093 28.8638 58.1117 28.8445 58.149 28.806C58.2049 28.7482 58.2609 28.6904 58.3355 28.6519C58.3728 28.6134 58.41 28.5748 58.4473 28.5556C58.466 28.5363 58.5033 28.4978 58.5406 28.4785C58.7084 28.3244 58.8763 28.1511 59.0441 27.9777C59.1001 27.92 59.156 27.8622 59.1933 27.8044C59.2679 27.7273 59.3239 27.6695 59.3798 27.5925C59.4358 27.5155 59.4917 27.4577 59.5663 27.3806C59.6223 27.3036 59.6969 27.2458 59.7528 27.1688C59.8088 27.0917 59.8647 27.0339 59.9207 26.9569C59.9766 26.8798 60.0326 26.8221 60.0885 26.745C60.1445 26.6872 60.2004 26.6102 60.2377 26.5524C60.2937 26.4754 60.3496 26.4176 60.4056 26.3405C60.4615 26.2827 60.4988 26.2057 60.5361 26.1479C60.5921 26.0709 60.648 25.9938 60.6853 25.9168C60.7226 25.859 60.7599 25.8012 60.7972 25.7242C60.8531 25.6471 60.9091 25.5701 60.9464 25.493C60.9837 25.4352 61.021 25.3775 61.0397 25.3197C61.0956 25.2426 61.1516 25.1463 61.1889 25.0693C61.2075 25.0308 61.2448 24.973 61.2634 24.9345C61.3194 24.8382 61.3753 24.7611 61.4126 24.6648C61.4313 24.6263 61.4499 24.5878 61.4686 24.5685C61.5245 24.4722 61.5805 24.3566 61.6364 24.2603C61.6551 24.2411 61.6551 24.2218 61.6737 24.2025C62.14 23.2972 62.4757 22.4112 62.7554 21.6408V21.6215C62.7927 21.5252 62.8114 21.4096 62.8487 21.3133C62.8673 21.2748 62.8673 21.2363 62.886 21.1978C62.9046 21.1207 62.9233 21.0629 62.9419 20.9859C62.9419 20.9666 62.9419 20.9666 62.9606 20.9474C62.9792 21.3326 62.9792 21.6793 62.9792 22.0645ZM62.9792 14.4563C62.9792 19.7917 61.8416 22.6809 61.5432 23.355C61.5245 23.4128 61.4872 23.4706 61.4686 23.5091C61.4499 23.5476 61.4313 23.5862 61.4126 23.6247C61.3753 23.7017 61.338 23.7788 61.3007 23.8366C61.2634 23.8943 61.2448 23.9521 61.2075 24.0099C61.1702 24.0677 61.1515 24.1255 61.1142 24.1833C61.0769 24.2603 61.0396 24.3374 60.9837 24.4144C60.965 24.4529 60.9278 24.4914 60.9091 24.53C60.8532 24.6263 60.7972 24.7226 60.7413 24.7996C60.7226 24.8189 60.7226 24.8382 60.704 24.8574C60.6294 24.973 60.5734 25.0885 60.4988 25.1849C60.1631 25.7242 59.7715 26.2635 59.3052 26.8028C59.2493 26.8606 59.1933 26.9376 59.1374 26.9954C59.0814 27.0725 59.0255 27.1302 58.9509 27.2073C58.8203 27.3421 58.7084 27.4769 58.5779 27.6118L58.5592 27.631C58.4846 27.7081 58.3914 27.8044 58.3168 27.8814C58.2795 27.92 58.2608 27.9392 58.2235 27.9777C58.1676 28.0355 58.093 28.0933 58.0371 28.1511C57.9998 28.1896 57.9625 28.2281 57.9252 28.2474C57.8692 28.3052 57.8133 28.3437 57.7573 28.4015C57.72 28.44 57.6827 28.4785 57.6454 28.4978C57.5895 28.5556 57.5335 28.5941 57.4776 28.6519C57.4403 28.6904 57.403 28.7289 57.347 28.7482C57.2911 28.7867 57.2351 28.8445 57.1792 28.883C57.1419 28.9215 57.0859 28.9601 57.0486 28.9793C56.9927 29.0178 56.9367 29.0756 56.8808 29.1141C56.8435 29.1527 56.7875 29.1912 56.7502 29.2104C56.6943 29.249 56.6383 29.2875 56.5824 29.3453C56.5451 29.3838 56.4891 29.4031 56.4518 29.4416C56.3959 29.4801 56.3399 29.5186 56.284 29.5571C56.2467 29.5957 56.1907 29.6149 56.1534 29.6535C56.0975 29.692 56.0415 29.7305 55.9856 29.769C55.9483 29.8076 55.8923 29.8268 55.855 29.8653C55.7991 29.9039 55.7431 29.9424 55.6685 29.9809C55.6312 30.0002 55.5753 30.0387 55.538 30.0579C55.482 30.0965 55.4075 30.135 55.3515 30.1735C55.3142 30.1928 55.2583 30.2313 55.221 30.2506C55.1464 30.2891 55.0904 30.3276 55.0158 30.3661C54.9785 30.3854 54.9412 30.4046 54.9039 30.4239C54.8293 30.4624 54.7547 30.501 54.6801 30.5395C54.6428 30.5587 54.6242 30.578 54.5869 30.578C54.3817 30.6936 54.1766 30.7899 53.9714 30.8669V29.249C56.1348 26.4754 57.5149 23.0661 58.466 19.6569C59.529 15.8624 60.1072 11.9139 60.331 7.9653C60.3496 7.46451 60.3869 6.96372 60.3869 6.46293C61.9908 8.48536 62.8673 10.4693 62.9979 13.7244L62.9792 14.4563Z" fill="#BAAAB4"/>
</svg>
