<svg width="76" height="20" viewBox="0 0 76 20" fill="none" xmlns="http://www.w3.org/2000/svg">
<path d="M35.9822 2.0324C38.3033 0.0685957 41.9011 -0.448193 44.9186 0.378671C46.0792 0.688745 47.3558 1.20553 47.5879 2.34247C47.5879 3.27269 47.1237 4.20292 47.0076 5.13314C45.6149 3.9962 43.5259 3.58277 41.5529 3.78948C39.4639 4.20291 38.0712 5.75328 37.2588 7.40701C36.3304 9.37082 35.9822 11.6447 36.7946 13.6085C37.2588 14.7454 38.1873 15.6757 39.4639 15.9857C41.4369 16.5025 43.5259 15.8824 45.0347 14.6421C44.6865 15.779 44.5704 17.0193 44.2223 18.1562C43.8741 19.0865 42.5975 19.4999 41.669 19.6033C38.9997 20.0167 35.8661 19.4999 34.0092 17.6395C32.1523 15.8824 31.6881 13.2984 31.8041 10.9212C31.9202 7.71709 33.1968 4.30627 35.9822 2.0324Z" fill="white"/>
<path d="M18.1039 0.446626C20.0818 0.132111 22.1761 -0.0775668 24.154 0.0272714C26.0156 0.13211 27.9935 0.446626 29.3897 1.70468C31.0186 3.06758 31.0186 5.58369 29.7388 7.2611C28.9243 8.20465 27.7608 8.93851 26.481 9.25303C27.5281 9.67238 28.5753 10.1966 29.0407 11.1401C30.2042 13.3417 29.6224 16.1724 27.5281 17.8498C25.8993 19.2127 23.6886 19.632 21.5944 19.7368C19.9655 19.7368 18.3366 19.7368 16.824 19.3175C16.0096 19.1078 15.4279 18.4788 15.0788 17.7449C14.7298 16.6965 14.8461 15.5433 15.0788 14.4949C16.126 9.77722 17.0567 5.16434 18.1039 0.446626ZM21.8271 3.38209C21.5944 4.74499 21.2453 6.00305 21.0126 7.36595C20.8963 7.7853 21.478 7.89014 21.8271 7.89014C23.2232 7.89014 24.7358 7.7853 25.6666 6.84176C26.5974 6.00305 26.7137 4.32564 25.4339 3.69661C24.2704 3.06758 22.9905 3.27726 21.8271 3.38209ZM20.1982 10.8256C19.8491 12.0837 19.6164 13.4466 19.3837 14.7046C19.2674 15.2288 19.0347 15.8578 19.3837 16.382C20.7799 16.382 22.4088 16.4869 23.5723 15.753C25.0848 14.9143 25.5502 12.8175 24.2704 11.6643C23.3396 10.6159 21.5944 10.8256 20.1982 10.8256Z" fill="white"/>
<path d="M50.4459 1.06571C51.8127 0.664313 53.2934 0.664313 54.6602 0.563965C56.5965 0.563965 58.6468 0.563966 60.4692 1.4671C61.836 2.16954 62.6333 3.37372 62.7472 4.77859C63.2028 7.68869 61.6082 10.7995 58.6468 12.2044C56.7104 13.2078 54.4324 13.2078 52.1544 13.1075C51.8127 14.5124 51.5849 16.0176 51.1293 17.4225C50.9015 18.2253 50.332 18.9277 49.5347 19.1284C48.5096 19.2287 47.4845 19.1284 46.4594 19.1284C47.9401 13.3082 49.0791 7.18695 50.4459 1.06571ZM54.4324 3.87546C54.0907 5.68172 53.6351 7.38765 53.2934 9.19391C53.1795 9.59531 53.4073 9.89635 53.749 9.9967C54.7741 10.1974 55.9131 9.9967 56.8243 9.49495C58.5329 8.59182 59.3302 6.38416 58.5329 4.77859C57.7355 3.57441 55.7992 3.77511 54.4324 3.87546Z" fill="white"/>
<path d="M5.59032 0.229656C6.28163 -0.116121 7.20338 -0.000862833 7.66426 0.575433C8.47079 1.84328 8.47079 3.34165 8.47079 4.72476C8.47079 5.87735 8.24035 7.02995 7.8947 8.06728C6.51207 6.33839 4.78378 4.84003 2.70984 3.80269C3.28593 2.53484 4.20769 1.03647 5.59032 0.229656Z" fill="white"/>
<path d="M64.6978 3.91721C65.3891 2.41884 66.1956 0.80521 67.8087 0.228914C68.6152 -0.116863 69.4217 0.344174 69.8826 1.03573C70.8044 3.34091 70.5739 5.99186 69.8826 8.29705C68.5 6.4529 66.7717 4.95454 64.6978 3.91721Z" fill="white"/>
<path d="M7.7791 0.69043C9.85304 1.95828 11.4661 3.80243 12.8487 5.87709C14.0009 7.49072 14.1161 9.91117 12.964 11.5248C11.5813 13.7147 9.6226 15.5589 7.66388 17.0572C6.51169 17.8641 5.12906 18.9014 3.63121 18.5556C2.24858 18.2098 1.32683 16.942 0.750732 15.6741C3.74643 13.9452 6.74212 11.5248 7.89431 8.18228C8.35519 7.14495 8.47041 5.99235 8.47041 4.83976C8.58563 3.45665 8.58563 1.84302 7.7791 0.69043Z" fill="#F57D31"/>
<path d="M69.9972 0.920898C71.8407 1.84297 73.1081 3.4566 74.3755 5.07023C75.2973 6.22282 75.9886 7.72119 75.7582 9.21956C75.6429 10.4874 74.9516 11.64 74.1451 12.6773C72.6472 14.6367 70.6885 16.3656 68.6146 17.864C67.808 18.4403 66.6558 18.9013 65.6189 18.5556C64.2363 18.2098 63.3145 16.9419 62.7384 15.6741C65.8493 13.9452 68.6146 11.5247 69.9972 8.18223C70.6885 5.87704 70.919 3.22608 69.9972 0.920898Z" fill="#F57D31"/>
</svg>
